{
  "accessors": [
    {
      "bufferView": 2,
      "componentType": 5126,
      "count": 11995,
      "max": [
        73.58474731445313,
        202.90255737304688,
        49.640899658203125
      ],
      "min": [
        -73.57775115966797,
        0.011909149587154388,
        -23.676788330078125
      ],
      "type": "VEC3"
    },
    {
      "bufferView": 2,
      "byteOffset": 143940,
      "componentType": 5126,
      "count": 11995,
      "max": [
        0.9999922513961792,
        0.999957263469696,
        0.9999818801879883
      ],
      "min": [
        -0.9999922513961792,
        -0.9999993443489075,
        -0.9999986886978149
      ],
      "type": "VEC3"
    },
    {
      "bufferView": 1,
      "componentType": 5126,
      "count": 11995,
      "max": [
        0.9936699867248535,
        0.9949399828910828
      ],
      "min": [
        0.006070000119507313,
        0.0051400065422058105
      ],
      "type": "VEC2"
    },
    {
      "bufferView": 1,
      "byteOffset": 95960,
      "componentType": 5126,
      "count": 11995,
      "max": [
        0.9936699867248535,
        0.9949399828910828
      ],
      "min": [
        0.006070000119507313,
        0.0051400065422058105
      ],
      "type": "VEC2"
    },
    {
      "bufferView": 1,
      "byteOffset": 191920,
      "componentType": 5126,
      "count": 11995,
      "max": [
        0.9936699867248535,
        0.9949399828910828
      ],
      "min": [
        0.006070000119507313,
        0.0051400065422058105
      ],
      "type": "VEC2"
    },
    {
      "bufferView": 0,
      "componentType": 5125,
      "count": 60510,
      "type": "SCALAR"
    },
    {
      "bufferView": 2,
      "byteOffset": 287880,
      "componentType": 5126,
      "count": 24537,
      "max": [
        36.46368408203125,
        199.93072509765625,
        29.228002548217773
      ],
      "min": [
        -36.46368408203125,
        55.539939880371094,
        -41.96388626098633
      ],
      "type": "VEC3"
    },
    {
      "bufferView": 2,
      "byteOffset": 582324,
      "componentType": 5126,
      "count": 24537,
      "max": [
        1.0,
        1.0,
        1.0
      ],
      "min": [
        -1.0,
        -0.9999980926513672,
        -1.0
      ],
      "type": "VEC3"
    },
    {
      "bufferView": 1,
      "byteOffset": 287880,
      "componentType": 5126,
      "count": 24537,
      "max": [
        -0.0,
        1.0
      ],
      "min": [
        -0.9942799806594849,
        0.005559980869293213
      ],
      "type": "VEC2"
    },
    {
      "bufferView": 1,
      "byteOffset": 484176,
      "componentType": 5126,
      "count": 24537,
      "max": [
        -0.0,
        1.0
      ],
      "min": [
        -0.9942799806594849,
        0.005559980869293213
      ],
      "type": "VEC2"
    },
    {
      "bufferView": 1,
      "byteOffset": 680472,
      "componentType": 5126,
      "count": 24537,
      "max": [
        -0.0,
        1.0
      ],
      "min": [
        -0.9942799806594849,
        0.005559980869293213
      ],
      "type": "VEC2"
    },
    {
      "bufferView": 0,
      "byteOffset": 242040,
      "componentType": 5125,
      "count": 113712,
      "type": "SCALAR"
    }
  ],
  "asset": {
    "extras": {
      "author": "2143087 (https://sketchfab.com/2143087)",
      "license": "CC-BY-4.0 (http://creativecommons.org/licenses/by/4.0/)",
      "source": "https://sketchfab.com/3d-models/astronot-466c8ae385854dda99a2dc2bc2ac5c58",
      "title": "Astronot"
    },
    "generator": "Sketchfab-15.30.0",
    "version": "2.0"
  },
  "bufferViews": [
    {
      "buffer": 0,
      "byteLength": 696888,
      "name": "floatBufferViews",
      "target": 34963
    },
    {
      "buffer": 0,
      "byteLength": 876768,
      "byteOffset": 696888,
      "byteStride": 8,
      "name": "floatBufferViews",
      "target": 34962
    },
    {
      "buffer": 0,
      "byteLength": 876768,
      "byteOffset": 1573656,
      "byteStride": 12,
      "name": "floatBufferViews",
      "target": 34962
    }
  ],
  "buffers": [
    {
      "byteLength": 2450424,
      "uri": "scene.bin"
    }
  ],
  "extensionsRequired": [
    "KHR_materials_pbrSpecularGlossiness"
  ],
  "extensionsUsed": [
    "KHR_materials_pbrSpecularGlossiness"
  ],
  "images": [
    {
      "uri": "textures/material_diffuse.png"
    },
    {
      "uri": "textures/material_specularGlossiness.png"
    },
    {
      "uri": "textures/material_1_diffuse.png"
    },
    {
      "uri": "textures/material_1_specularGlossiness.png"
    }
  ],
  "materials": [
    {
      "doubleSided": true,
      "extensions": {
        "KHR_materials_pbrSpecularGlossiness": {
          "diffuseFactor": [
            1.0,
            1.0,
            1.0,
            1.0
          ],
          "diffuseTexture": {
            "index": 0
          },
          "glossinessFactor": 1.0,
          "specularFactor": [
            1.0,
            1.0,
            1.0
          ],
          "specularGlossinessTexture": {
            "index": 1
          }
        }
      },
      "name": "material"
    },
    {
      "doubleSided": true,
      "extensions": {
        "KHR_materials_pbrSpecularGlossiness": {
          "diffuseFactor": [
            1.0,
            1.0,
            1.0,
            1.0
          ],
          "diffuseTexture": {
            "index": 2
          },
          "glossinessFactor": 1.0,
          "specularFactor": [
            1.0,
            1.0,
            1.0
          ],
          "specularGlossinessTexture": {
            "index": 3
          }
        }
      },
      "name": "material_1"
    }
  ],
  "meshes": [
    {
      "name": "Object_0",
      "primitives": [
        {
          "attributes": {
            "NORMAL": 1,
            "POSITION": 0,
            "TEXCOORD_0": 2,
            "TEXCOORD_1": 3,
            "TEXCOORD_2": 4
          },
          "indices": 5,
          "material": 0,
          "mode": 4
        }
      ]
    },
    {
      "name": "Object_1",
      "primitives": [
        {
          "attributes": {
            "NORMAL": 7,
            "POSITION": 6,
            "TEXCOORD_0": 8,
            "TEXCOORD_1": 9,
            "TEXCOORD_2": 10
          },
          "indices": 11,
          "material": 1,
          "mode": 4
        }
      ]
    }
  ],
  "nodes": [
    {
      "children": [
        1
      ],
      "matrix": [
        1.0,
        0.0,
        0.0,
        0.0,
        0.0,
        2.220446049250313e-16,
        -1.0,
        0.0,
        0.0,
        1.0,
        2.220446049250313e-16,
        0.0,
        0.0,
        0.0,
        0.0,
        1.0
      ],
      "name": "Sketchfab_model"
    },
    {
      "children": [
        2
      ],
      "name": "root"
    },
    {
      "children": [
        3
      ],
      "matrix": [
        1.0,
        0.0,
        0.0,
        0.0,
        0.0,
        2.220446049250313e-16,
        1.0,
        0.0,
        0.0,
        -1.0,
        2.220446049250313e-16,
        0.0,
        0.0,
        0.0,
        0.0,
        1.0
      ],
      "name": "GLTF_SceneRootNode"
    },
    {
      "children": [
        4
      ],
      "name": "root_1"
    },
    {
      "children": [
        5,
        7
      ],
      "matrix": [
        0.0010000000474974513,
        0.0,
        0.0,
        0.0,
        0.0,
        0.0010000000474974513,
        0.0,
        0.0,
        0.0,
        0.0,
        0.0010000000474974513,
        0.0,
        0.004895007703453302,
        0.005854623392224312,
        1.525878978725359e-08,
        1.0
      ],
      "name": "node_id35_2"
    },
    {
      "children": [
        6
      ],
      "matrix": [
        2.523526906967163,
        0.0,
        0.0,
        0.0,
        0.0,
        2.523526906967163,
        0.0,
        0.0,
        0.0,
        0.0,
        2.523526906967163,
        0.0,
        -0.008844339288771152,
        -256.030029296875,
        246.31341552734375,
        1.0
      ],
      "name": "node_id31_0"
    },
    {
      "mesh": 0,
      "name": "Object_6"
    },
    {
      "children": [
        8
      ],
      "matrix": [
        2.523526906967163,
        0.0,
        0.0,
        0.0,
        0.0,
        2.523526906967163,
        0.0,
        0.0,
        0.0,
        0.0,
        2.523526906967163,
        0.0,
        -0.008844339288771152,
        -256.030029296875,
        246.31341552734375,
        1.0
      ],
      "name": "node_id33_3"
    },
    {
      "mesh": 1,
      "name": "Object_8"
    }
  ],
  "samplers": [
    {
      "magFilter": 9729,
      "minFilter": 9987,
      "wrapS": 10497,
      "wrapT": 10497
    }
  ],
  "scene": 0,
  "scenes": [
    {
      "name": "Sketchfab_Scene",
      "nodes": [
        0
      ]
    }
  ],
  "textures": [
    {
      "sampler": 0,
      "source": 0
    },
    {
      "sampler": 0,
      "source": 1
    },
    {
      "sampler": 0,
      "source": 2
    },
    {
      "sampler": 0,
      "source": 3
    }
  ]
}
