{
  "accessors": [
    {
      "bufferView": 2,
      "componentType": 5126,
      "count": 20633,
      "max": [
        1.0,
        9.292759895324707,
        1.0
      ],
      "min": [
        -1.0,
        -1.5287200212478638,
        -1.2724699974060059
      ],
      "type": "VEC3"
    },
    {
      "bufferView": 2,
      "byteOffset": 247596,
      "componentType": 5126,
      "count": 20633,
      "max": [
        1.0,
        1.0,
        1.0
      ],
      "min": [
        -1.0,
        -1.0,
        -1.0
      ],
      "type": "VEC3"
    },
    {
      "bufferView": 1,
      "componentType": 5126,
      "count": 20633,
      "max": [
        0.0,
        0.0
      ],
      "min": [
        0.0,
        0.0
      ],
      "type": "VEC2"
    },
    {
      "bufferView": 0,
      "componentType": 5125,
      "count": 121272,
      "type": "SCALAR"
    },
    {
      "bufferView": 2,
      "byteOffset": 495192,
      "componentType": 5126,
      "count": 625,
      "max": [
        0.8946700096130371,
        -0.9779599905014038,
        0.8690500259399414
      ],
      "min": [
        -0.8974000215530396,
        -0.983460009098053,
        -0.6604400277137756
      ],
      "type": "VEC3"
    },
    {
      "bufferView": 2,
      "byteOffset": 502692,
      "componentType": 5126,
      "count": 625,
      "max": [
        0.9690092206001282,
        -0.23142874240875244,
        0.7262653112411499
      ],
      "min": [
        -0.8244175910949707,
        -1.0,
        -0.7343509793281555
      ],
      "type": "VEC3"
    },
    {
      "bufferView": 1,
      "byteOffset": 165064,
      "componentType": 5126,
      "count": 625,
      "max": [
        0.8436800241470337,
        0.7799999713897705
      ],
      "min": [
        0.1563200056552887,
        0.3900899887084961
      ],
      "type": "VEC2"
    },
    {
      "bufferView": 0,
      "byteOffset": 485088,
      "componentType": 5125,
      "count": 3456,
      "type": "SCALAR"
    },
    {
      "bufferView": 2,
      "byteOffset": 510192,
      "componentType": 5126,
      "count": 625,
      "max": [
        0.9031299948692322,
        -0.9967899918556213,
        0.8789399862289429
      ],
      "min": [
        -0.906059980392456,
        -1.0,
        -0.6758900284767151
      ],
      "type": "VEC3"
    },
    {
      "bufferView": 2,
      "byteOffset": 517692,
      "componentType": 5126,
      "count": 625,
      "max": [
        0.229836106300354,
        -0.9676465392112732,
        0.15061041712760925
      ],
      "min": [
        -0.25230690836906433,
        -1.0,
        -0.24381054937839508
      ],
      "type": "VEC3"
    },
    {
      "bufferView": 1,
      "byteOffset": 170064,
      "componentType": 5126,
      "count": 625,
      "max": [
        0.0,
        0.0
      ],
      "min": [
        0.0,
        0.0
      ],
      "type": "VEC2"
    },
    {
      "bufferView": 0,
      "byteOffset": 498912,
      "componentType": 5125,
      "count": 3456,
      "type": "SCALAR"
    },
    {
      "bufferView": 2,
      "byteOffset": 525192,
      "componentType": 5126,
      "count": 2019,
      "max": [
        1.0,
        2.124660015106201,
        0.9908300042152405
      ],
      "min": [
        -0.9932799935340881,
        -1.0,
        -0.9330700039863586
      ],
      "type": "VEC3"
    },
    {
      "bufferView": 2,
      "byteOffset": 549420,
      "componentType": 5126,
      "count": 2019,
      "max": [
        0.9953182935714722,
        1.0,
        0.9918099641799927
      ],
      "min": [
        -0.9955719709396362,
        -1.0,
        -0.8638826608657837
      ],
      "type": "VEC3"
    },
    {
      "bufferView": 1,
      "byteOffset": 175064,
      "componentType": 5126,
      "count": 2019,
      "max": [
        0.0,
        0.0
      ],
      "min": [
        0.0,
        0.0
      ],
      "type": "VEC2"
    },
    {
      "bufferView": 0,
      "byteOffset": 512736,
      "componentType": 5125,
      "count": 10230,
      "type": "SCALAR"
    },
    {
      "bufferView": 2,
      "byteOffset": 573648,
      "componentType": 5126,
      "count": 1926,
      "max": [
        1.0938999652862549,
        -0.8118399977684021,
        0.9752299785614014
      ],
      "min": [
        -0.8807200193405151,
        -17.92721939086914,
        -0.9776300191879272
      ],
      "type": "VEC3"
    },
    {
      "bufferView": 2,
      "byteOffset": 596760,
      "componentType": 5126,
      "count": 1926,
      "max": [
        0.8557536005973816,
        0.11955049633979797,
        0.9997050166130066
      ],
      "min": [
        -0.9939046502113342,
        -0.1996908336877823,
        -0.9992049932479858
      ],
      "type": "VEC3"
    },
    {
      "bufferView": 1,
      "byteOffset": 191216,
      "componentType": 5126,
      "count": 1926,
      "max": [
        0.9263799786567688,
        0.6862999796867371
      ],
      "min": [
        0.07761000096797943,
        0.3184700012207031
      ],
      "type": "VEC2"
    },
    {
      "bufferView": 0,
      "byteOffset": 553656,
      "componentType": 5125,
      "count": 3201,
      "type": "SCALAR"
    },
    {
      "bufferView": 2,
      "byteOffset": 619872,
      "componentType": 5126,
      "count": 7387,
      "max": [
        1.4089200496673584,
        0.9940000176429749,
        1.0
      ],
      "min": [
        -0.9940000176429749,
        -18.490549087524414,
        -1.0
      ],
      "type": "VEC3"
    },
    {
      "bufferView": 2,
      "byteOffset": 708516,
      "componentType": 5126,
      "count": 7387,
      "max": [
        1.0,
        1.0,
        1.0
      ],
      "min": [
        -1.0,
        -1.0,
        -1.0
      ],
      "type": "VEC3"
    },
    {
      "bufferView": 1,
      "byteOffset": 206624,
      "componentType": 5126,
      "count": 7387,
      "max": [
        0.9341700077056885,
        0.6916900277137756
      ],
      "min": [
        0.0,
        0.0
      ],
      "type": "VEC2"
    },
    {
      "bufferView": 0,
      "byteOffset": 566460,
      "componentType": 5125,
      "count": 28515,
      "type": "SCALAR"
    },
    {
      "bufferView": 2,
      "byteOffset": 797160,
      "componentType": 5126,
      "count": 2250,
      "max": [
        0.952750027179718,
        1.0487200021743774,
        0.12588000297546387
      ],
      "min": [
        -0.9411600232124329,
        -1.1067999601364136,
        -0.008270000107586384
      ],
      "type": "VEC3"
    },
    {
      "bufferView": 2,
      "byteOffset": 824160,
      "componentType": 5126,
      "count": 2250,
      "max": [
        0.11419028043746948,
        0.15154989063739777,
        -0.9595435261726379
      ],
      "min": [
        -0.13960954546928406,
        -0.2581104040145874,
        -0.9999743103981018
      ],
      "type": "VEC3"
    },
    {
      "bufferView": 0,
      "byteOffset": 680520,
      "componentType": 5125,
      "count": 3309,
      "type": "SCALAR"
    },
    {
      "bufferView": 2,
      "byteOffset": 851160,
      "componentType": 5126,
      "count": 4862,
      "max": [
        0.9547200202941895,
        1.0769100189208984,
        0.05023999884724617
      ],
      "min": [
        -0.955590009689331,
        -1.1343200206756592,
        -0.07865999639034271
      ],
      "type": "VEC3"
    },
    {
      "bufferView": 2,
      "byteOffset": 909504,
      "componentType": 5126,
      "count": 4862,
      "max": [
        0.4891512095928192,
        0.7223607301712036,
        0.9999973773956299
      ],
      "min": [
        -0.4616316258907318,
        -0.7478527426719666,
        0.6490724086761475
      ],
      "type": "VEC3"
    },
    {
      "bufferView": 0,
      "byteOffset": 693756,
      "componentType": 5125,
      "count": 7296,
      "type": "SCALAR"
    },
    {
      "bufferView": 2,
      "byteOffset": 967848,
      "componentType": 5126,
      "count": 4096,
      "max": [
        0.9904099702835083,
        1.1081500053405762,
        0.08268000185489655
      ],
      "min": [
        -0.9900100231170654,
        -1.174739956855774,
        -0.09476999938488007
      ],
      "type": "VEC3"
    },
    {
      "bufferView": 2,
      "byteOffset": 1017000,
      "componentType": 5126,
      "count": 4096,
      "max": [
        0.8951829671859741,
        0.9267126321792603,
        0.999976634979248
      ],
      "min": [
        -0.7225192189216614,
        -0.9484321475028992,
        -0.9938349723815918
      ],
      "type": "VEC3"
    },
    {
      "bufferView": 0,
      "byteOffset": 722940,
      "componentType": 5125,
      "count": 6144,
      "type": "SCALAR"
    },
    {
      "bufferView": 2,
      "byteOffset": 1066152,
      "componentType": 5126,
      "count": 149,
      "max": [
        0.16467000544071198,
        -0.2306399941444397,
        0.10818000137805939
      ],
      "min": [
        -0.23526999354362488,
        -0.48899999260902405,
        0.08279000222682953
      ],
      "type": "VEC3"
    },
    {
      "bufferView": 2,
      "byteOffset": 1067940,
      "componentType": 5126,
      "count": 149,
      "max": [
        0.02608010731637478,
        0.10301011800765991,
        -0.9945811629295349
      ],
      "min": [
        -0.014050017111003399,
        0.07970978319644928,
        -0.9967601299285889
      ],
      "type": "VEC3"
    },
    {
      "bufferView": 0,
      "byteOffset": 747516,
      "componentType": 5125,
      "count": 177,
      "type": "SCALAR"
    }
  ],
  "asset": {
    "extras": {
      "author": "lazercar (https://sketchfab.com/lazercar)",
      "license": "CC-BY-SA-4.0 (http://creativecommons.org/licenses/by-sa/4.0/)",
      "source": "https://sketchfab.com/3d-models/apple-imac-ba474409e8044e01b3cf43de0c43c121",
      "title": "Apple iMac"
    },
    "generator": "Sketchfab-12.68.0",
    "version": "2.0"
  },
  "bufferViews": [
    {
      "buffer": 0,
      "byteLength": 748224,
      "name": "floatBufferViews",
      "target": 34963
    },
    {
      "buffer": 0,
      "byteLength": 265720,
      "byteOffset": 748224,
      "byteStride": 8,
      "name": "floatBufferViews",
      "target": 34962
    },
    {
      "buffer": 0,
      "byteLength": 1069728,
      "byteOffset": 1013944,
      "byteStride": 12,
      "name": "floatBufferViews",
      "target": 34962
    }
  ],
  "buffers": [
    {
      "byteLength": 2083672,
      "uri": "scene.bin"
    }
  ],
  "extensionsRequired": [
    "KHR_materials_pbrSpecularGlossiness"
  ],
  "extensionsUsed": [
    "KHR_materials_pbrSpecularGlossiness"
  ],
  "images": [
    {
      "uri": "textures/Material.004_diffuse.jpeg"
    },
    {
      "uri": "textures/Material.001_diffuse.png"
    }
  ],
  "materials": [
    {
      "doubleSided": true,
      "extensions": {
        "KHR_materials_pbrSpecularGlossiness": {
          "diffuseFactor": [
            1.0,
            1.0,
            1.0,
            1.0
          ],
          "glossinessFactor": 0.9583333284,
          "specularFactor": [
            1.0,
            1.0,
            1.0
          ]
        }
      },
      "name": "Material.007"
    },
    {
      "doubleSided": true,
      "extensions": {
        "KHR_materials_pbrSpecularGlossiness": {
          "diffuseFactor": [
            1.0,
            1.0,
            1.0,
            1.0
          ],
          "glossinessFactor": 0.6024844646,
          "specularFactor": [
            0.8000000119,
            0.8000000119,
            0.8000000119
          ]
        }
      },
      "name": "Material.006"
    },
    {
      "doubleSided": true,
      "extensions": {
        "KHR_materials_pbrSpecularGlossiness": {
          "diffuseFactor": [
            0.0,
            0.0,
            0.0,
            1.0
          ],
          "glossinessFactor": 0.6202362804878049,
          "specularFactor": [
            0.0,
            0.0,
            0.0
          ]
        }
      },
      "name": "Material.008"
    },
    {
      "doubleSided": true,
      "extensions": {
        "KHR_materials_pbrSpecularGlossiness": {
          "diffuseFactor": [
            0.0,
            0.0,
            0.0,
            1.0
          ],
          "glossinessFactor": 1.0,
          "specularFactor": [
            0.0214417893,
            0.0214417893,
            0.0214417893
          ]
        }
      },
      "name": "Material.003"
    },
    {
      "doubleSided": true,
      "extensions": {
        "KHR_materials_pbrSpecularGlossiness": {
          "diffuseFactor": [
            1.0,
            1.0,
            1.0,
            1.0
          ],
          "diffuseTexture": {
            "index": 0
          },
          "glossinessFactor": 0.8580411585365854,
          "specularFactor": [
            1.0,
            1.0,
            1.0
          ]
        }
      },
      "name": "Material.004"
    },
    {
      "doubleSided": true,
      "extensions": {
        "KHR_materials_pbrSpecularGlossiness": {
          "diffuseFactor": [
            1.0,
            1.0,
            1.0,
            1.0
          ],
          "glossinessFactor": 0.7360899390243902,
          "specularFactor": [
            1.0,
            1.0,
            1.0
          ]
        }
      },
      "name": "Material"
    },
    {
      "doubleSided": true,
      "emissiveFactor": [
        1.0,
        1.0,
        1.0
      ],
      "emissiveTexture": {
        "index": 1
      },
      "extensions": {
        "KHR_materials_pbrSpecularGlossiness": {
          "diffuseFactor": [
            1.0,
            1.0,
            1.0,
            1.0
          ],
          "diffuseTexture": {
            "index": 1
          },
          "glossinessFactor": 1.0,
          "specularFactor": [
            1.0,
            1.0,
            1.0
          ],
          "specularGlossinessTexture": {
            "index": 1
          }
        }
      },
      "name": "Material.001"
    },
    {
      "alphaMode": "BLEND",
      "doubleSided": true,
      "extensions": {
        "KHR_materials_pbrSpecularGlossiness": {
          "diffuseFactor": [
            0.18272736393587025,
            0.17756533711576564,
            0.17756533711576564,
            0.044397865853658534
          ],
          "glossinessFactor": 1.0,
          "specularFactor": [
            0.30026978286695144,
            0.26920497732406123,
            0.26920497732406123
          ]
        }
      },
      "name": "Material.002"
    }
  ],
  "meshes": [
    {
      "name": "Cube_0",
      "primitives": [
        {
          "attributes": {
            "NORMAL": 1,
            "POSITION": 0,
            "TEXCOORD_0": 2
          },
          "indices": 3,
          "material": 5,
          "mode": 4
        }
      ]
    },
    {
      "name": "Cube_1",
      "primitives": [
        {
          "attributes": {
            "NORMAL": 5,
            "POSITION": 4,
            "TEXCOORD_0": 6
          },
          "indices": 7,
          "material": 6,
          "mode": 4
        }
      ]
    },
    {
      "name": "Cube_2",
      "primitives": [
        {
          "attributes": {
            "NORMAL": 9,
            "POSITION": 8,
            "TEXCOORD_0": 10
          },
          "indices": 11,
          "material": 7,
          "mode": 4
        }
      ]
    },
    {
      "name": "Cube_3",
      "primitives": [
        {
          "attributes": {
            "NORMAL": 13,
            "POSITION": 12,
            "TEXCOORD_0": 14
          },
          "indices": 15,
          "material": 3,
          "mode": 4
        }
      ]
    },
    {
      "name": "Cylinder_0",
      "primitives": [
        {
          "attributes": {
            "NORMAL": 17,
            "POSITION": 16,
            "TEXCOORD_0": 18
          },
          "indices": 19,
          "material": 4,
          "mode": 4
        }
      ]
    },
    {
      "name": "Cylinder_1",
      "primitives": [
        {
          "attributes": {
            "NORMAL": 21,
            "POSITION": 20,
            "TEXCOORD_0": 22
          },
          "indices": 23,
          "material": 5,
          "mode": 4
        }
      ]
    },
    {
      "name": "Plane_0",
      "primitives": [
        {
          "attributes": {
            "NORMAL": 25,
            "POSITION": 24
          },
          "indices": 26,
          "material": 0,
          "mode": 4
        }
      ]
    },
    {
      "name": "Plane_1",
      "primitives": [
        {
          "attributes": {
            "NORMAL": 28,
            "POSITION": 27
          },
          "indices": 29,
          "material": 1,
          "mode": 4
        }
      ]
    },
    {
      "name": "Plane_2",
      "primitives": [
        {
          "attributes": {
            "NORMAL": 31,
            "POSITION": 30
          },
          "indices": 32,
          "material": 2,
          "mode": 4
        }
      ]
    },
    {
      "name": "Plane_3",
      "primitives": [
        {
          "attributes": {
            "NORMAL": 34,
            "POSITION": 33
          },
          "indices": 35,
          "material": 3,
          "mode": 4
        }
      ]
    }
  ],
  "nodes": [
    {
      "children": [
        1
      ],
      "matrix": [
        1.0,
        0.0,
        0.0,
        0.0,
        0.0,
        2.220446049250313e-16,
        -1.0,
        0.0,
        0.0,
        1.0,
        2.220446049250313e-16,
        0.0,
        0.0,
        0.0,
        0.0,
        1.0
      ],
      "name": "Sketchfab_model"
    },
    {
      "children": [
        2,
        7,
        10
      ],
      "name": "Root"
    },
    {
      "children": [
        3,
        4,
        5,
        6
      ],
      "matrix": [
        -0.11393000000000002,
        -2.85313,
        0.0,
        0.0,
        0.15696000000000004,
        -0.006270000000000001,
        -0.03594,
        0.0,
        0.40627,
        -0.016220000000000002,
        1.7772400000000002,
        0.0,
        1.98057,
        -2.2781200000000004,
        2.2205000000000004,
        1.0
      ],
      "name": "Cube"
    },
    {
      "mesh": 0,
      "name": "Cube_0"
    },
    {
      "mesh": 1,
      "name": "Cube_1"
    },
    {
      "mesh": 2,
      "name": "Cube_2"
    },
    {
      "mesh": 3,
      "name": "Cube_3"
    },
    {
      "children": [
        8,
        9
      ],
      "matrix": [
        -0.0018800000000000004,
        8.000000000000003e-05,
        -0.05602000000000001,
        0.0,
        0.05598,
        -0.0022400000000000007,
        -0.0018800000000000004,
        0.0,
        -0.06049000000000001,
        -1.5149,
        0.0,
        0.0,
        0.3204000000000001,
        -2.3793499999999996,
        0.05377000000000001,
        1.0
      ],
      "name": "Cylinder"
    },
    {
      "mesh": 4,
      "name": "Cylinder_0"
    },
    {
      "mesh": 5,
      "name": "Cylinder_1"
    },
    {
      "children": [
        11,
        12,
        13,
        14
      ],
      "matrix": [
        -0.007530000000000002,
        -0.18867,
        0.0,
        0.0,
        0.36675,
        -0.014640000000000002,
        0.0,
        0.0,
        0.0,
        0.0,
        0.5314,
        0.0,
        0.28590000000000004,
        -5.3321499999999995,
        0.06380000000000001,
        1.0
      ],
      "name": "Plane"
    },
    {
      "mesh": 6,
      "name": "Plane_0"
    },
    {
      "mesh": 7,
      "name": "Plane_1"
    },
    {
      "mesh": 8,
      "name": "Plane_2"
    },
    {
      "mesh": 9,
      "name": "Plane_3"
    }
  ],
  "samplers": [
    {
      "magFilter": 9729,
      "minFilter": 9987,
      "wrapS": 10497,
      "wrapT": 10497
    }
  ],
  "scene": 0,
  "scenes": [
    {
      "name": "Sketchfab_Scene",
      "nodes": [
        0
      ]
    }
  ],
  "textures": [
    {
      "sampler": 0,
      "source": 0
    },
    {
      "sampler": 0,
      "source": 1
    }
  ]
}
